# xmcd
#
# Track frame offsets: 
#        150
#        20366
#        35469
#        51053
#        65056
#        78801
#        92227
#        106772
#        119402
#        137994
#
# Disc length: 2068 seconds
#
# Revision: 0
# Processed by: cddbd v1.5.2PL0 Copyright (c) Steve Scherf et al.
# Submitted via: ExactAudioCopy v0.95b4
#
DISCID=8008120a
DTITLE=Billy "Crash" Craddock - Crash Craddock
DYEAR=1986
DGENRE=Country
TTITLE0=Honey Don't
TTITLE1=I Didn't Hear the Thunder
TTITLE2=Only Then
TTITLE3=Love Burn
TTITLE4=Broken Down in Tiny Pieces
TTITLE5=She Belongs to Me
TTITLE6=All Night Blue
TTITLE7=Whatcha Gonna Do
TTITLE8=Three Times a Lady
TTITLE9=For the Good Times
EXTD=
EXTT0=
EXTT1=
EXTT2=
EXTT3=
EXTT4=
EXTT5=
EXTT6=
EXTT7=
EXTT8=
EXTT9=
PLAYORDER=
